<svg height="512" viewBox="0 0 64 64" width="512" xmlns="http://www.w3.org/2000/svg"><g id="Mobile_App-Hand-Smartphone-Taxi-Technology" data-name="Mobile App-Hand-Smartphone-Taxi-Technology"><path d="m16 13h6v2h-6z"/><path d="m14 19h2v2h-2z"/><path d="m18 19h6v2h-6z"/><path d="m14 23h10v2h-10z"/><path d="m14 27h10v2h-10z"/><path d="m40 18h2v2h-2z"/><path d="m50 18h2v2h-2z"/><path d="m53.105 13.553-.1.211-2.105-4.211a1 1 0 0 0 -.9-.553v-3a1 1 0 0 0 -1-1h-6a1 1 0 0 0 -1 1v3a1 1 0 0 0 -.9.553l-2.1 4.211-.1-.211a1 1 0 0 0 -.9-.553h-2v2h1.382l.189.379a2.989 2.989 0 0 0 -1.571 2.621v2a3 3 0 0 0 2 2.816v2.184a2 2 0 0 0 2 2h2a2 2 0 0 0 2-2v-2h4v2a2 2 0 0 0 2 2h2a2 2 0 0 0 2-2v-2.184a3 3 0 0 0 2-2.816v-2a2.989 2.989 0 0 0 -1.571-2.621l.189-.379h1.382v-2h-2a1 1 0 0 0 -.895.553zm-9.105-6.553h4v2h-4zm-1.382 4h6.764l2 4h-10.764zm-.618 14h-2v-2h2zm8 0v-2h2v2zm4-5a1 1 0 0 1 -1 1h-14a1 1 0 0 1 -1-1v-2a1 1 0 0 1 1-1h14a1 1 0 0 1 1 1z"/><path d="m51.47 1.96a15.995 15.995 0 0 0 -21.47 14.96v-2.92a5 5 0 0 0 -5-5h-12a5 5 0 0 0 -5 5v12.08a7 7 0 0 0 -6 6.92v11.53a2.971 2.971 0 0 0 .32 1.34l1.68 3.37v2.76h-1a1 1 0 0 0 -1 1v8a1 1 0 0 0 1 1h14a1 1 0 0 0 1-1v-8a1 1 0 0 0 -1-1h-1v-.67l2.8-3.73a.984.984 0 0 0 .2-.6v-2.21a5.074 5.074 0 0 1 .17-1.29l.13-.5h5.7a5 5 0 0 0 5-5v-9h-2v9a3.009 3.009 0 0 1 -3 3h-5.16l.53-2h1.63v-2h-1.09l.13-.47a3.032 3.032 0 0 0 -.3-2.28 3.007 3.007 0 0 0 -5.5.73l-1.15 4.3a1.045 1.045 0 0 1 -.97.73.953.953 0 0 1 -.83-.48l-2.29-3.81v-21.72a3.009 3.009 0 0 1 3-3h12a3.009 3.009 0 0 1 3 3v5h2v-1.99a15.532 15.532 0 0 0 .34 3.25l-4.33 5.05a1.011 1.011 0 0 0 -.14 1.08 1 1 0 0 0 .91.57l6.65-.06a16 16 0 1 0 18.04-24.94zm-35.47 58.04h-12v-6h12zm-5.43-19.44a2.956 2.956 0 0 0 2.53 1.45h.04a2.974 2.974 0 0 0 2.88-2.21l1.15-4.3a1 1 0 0 1 .47-.61 1 1 0 0 1 1.36.36.974.974 0 0 1 .1.76l-1.86 6.97a6.922 6.922 0 0 0 -.24 1.81v1.88l-2.8 3.73a.984.984 0 0 0 -.2.6v1h-8v-3a1 1 0 0 0 -.11-.45l-1.78-3.58a.956.956 0 0 1 -.11-.44v-11.53a5.009 5.009 0 0 1 4-4.9v7.9a1 1 0 0 0 .14.51zm48.59-18.77a13.993 13.993 0 0 1 -24.43 3.51 1.014 1.014 0 0 0 -.8-.4h-.01l-4.96.04 3.22-3.76a1.017 1.017 0 0 0 .22-.89 14 14 0 1 1 26.76 1.5z"/></g></svg>